<svg width="400" height="400" viewBox="0 0 400 400" fill="none" xmlns="http://www.w3.org/2000/svg">
<path d="M350 200C350 215.29 331.45 227.46 326.97 241.26C322.33 255.56 330.02 276.28 321.36 288.18C312.61 300.2 290.47 299.24 278.45 307.99C266.55 316.65 260.66 338.05 246.37 342.7C232.57 347.18 215.3 333.47 200.01 333.47C184.72 333.47 167.44 347.18 153.65 342.7C139.35 338.06 133.47 316.65 121.57 307.99C109.55 299.24 87.41 300.2 78.66 288.18C70 276.28 77.69 255.56 73.05 241.26C68.55 227.46 50 215.29 50 200C50 184.71 68.55 172.54 73.03 158.74C77.67 144.44 69.98 123.72 78.64 111.82C87.39 99.8 109.53 100.76 121.55 92.01C133.45 83.35 139.34 61.95 153.63 57.3C167.43 52.82 184.7 66.53 199.99 66.53C215.28 66.53 232.56 52.82 246.35 57.3C260.65 61.94 266.53 83.35 278.43 92.01C290.45 100.76 312.59 99.8 321.34 111.82C330 123.72 322.31 144.44 326.95 158.74C331.45 172.54 350 184.71 350 200Z" stroke="#191919" stroke-width="12" stroke-miterlimit="10" stroke-linecap="round" stroke-linejoin="round"/>
<path d="M263.16 136.84L136.84 263.16" stroke="#6A0BFF" stroke-width="12" stroke-miterlimit="10" stroke-linecap="round" stroke-linejoin="round"/>
<path d="M157.27 177.7C168.553 177.7 177.7 168.553 177.7 157.27C177.7 145.987 168.553 136.84 157.27 136.84C145.987 136.84 136.84 145.987 136.84 157.27C136.84 168.553 145.987 177.7 157.27 177.7Z" stroke="#6A0BFF" stroke-width="12" stroke-miterlimit="10" stroke-linecap="round" stroke-linejoin="round"/>
<path d="M242.73 263.16C254.013 263.16 263.16 254.013 263.16 242.73C263.16 231.447 254.013 222.3 242.73 222.3C231.447 222.3 222.3 231.447 222.3 242.73C222.3 254.013 231.447 263.16 242.73 263.16Z" stroke="#6A0BFF" stroke-width="12" stroke-miterlimit="10" stroke-linecap="round" stroke-linejoin="round"/>
</svg>
